<svg
  xmlns="http://www.w3.org/2000/svg"
  viewBox="0 0 503.37 1000"
  style={{ width: "240px", height: "auto", display: "block", margin: "0 auto" }}
>
  <defs>
    <radialGradient id="wineGradient" cx="50%" cy="40%" r="60%">
      <stop offset="0%" stopColor="#DE7C7D" />
      <stop offset="40%" stopColor="#CC2B52" />
      <stop offset="70%" stopColor="#AF1740" />
      <stop offset="100%" stopColor="#740938" />
    </radialGradient>
  </defs>

  <g transform="translate(1548.8 487.64)">
    <g transform="matrix(8.7568 0 0 8.7568 -5379 -7084.1)">
      <path
        d="M466.11 866.99h0.056-21.237c-0.401-1.534 8.065-3.674 10.304-4.832 7.718-3.991 8.645-6.356 8.788-22.408 0.149-16.821-0.741-20.59-5.33-22.57-15.367-6.628-22.422-18.13-20.479-33.386 0.693-5.444 6.954-27.788 8.321-30h19.606 19.606c1.367 2.212 7.628 24.557 8.321 30 1.943 15.256-5.112 26.758-20.479 33.386-4.59 1.98-5.48 5.748-5.33 22.57 0.143 16.052 1.07 18.417 8.788 22.408 2.239 1.158 10.705 3.299 10.304 4.832h-21.237z"
        fill="url(#wineGradient)"
        stroke="#AF1740"
        strokeWidth="1.5"
        strokeLinejoin="round"
      />
    </g>
  </g>
</svg>
